<svg data-v-d3f97b9e="" xmlns="http://www.w3.org/2000/svg" viewBox="0 0 640 90"><!----><!----><!----><g data-v-d3f97b9e="" id="814f7209-7d01-44f7-84f6-9c9e6b12debd" fill="#240D1B" transform="matrix(5.730659401617148,0,0,5.730659401617148,129.10213941338168,5.315185760193216)"><path d="M2.49 2.92L0.23 2.92L0.23 1.93L5.79 1.93L5.79 2.92L3.52 2.92L3.52 12.07L2.49 12.07L2.49 2.92ZM7.08 12.10L7.08 1.70L8.05 1.70L8.05 5.95L8.05 5.95Q8.63 5.17 9.33 4.79L9.33 4.79L9.33 4.79Q10.03 4.41 10.85 4.41L10.85 4.41L10.85 4.41Q11.70 4.41 12.35 4.84L12.35 4.84L12.35 4.84Q13.00 5.26 13.30 5.98L13.30 5.98L13.30 5.98Q13.61 6.70 13.61 8.24L13.61 8.24L13.61 12.10L12.65 12.10L12.65 8.52L12.65 8.52Q12.65 7.23 12.54 6.79L12.54 6.79L12.54 6.79Q12.37 6.04 11.89 5.67L11.89 5.67L11.89 5.67Q11.42 5.30 10.66 5.30L10.66 5.30L10.66 5.30Q9.78 5.30 9.09 5.88L9.09 5.88L9.09 5.88Q8.39 6.45 8.18 7.31L8.18 7.31L8.18 7.31Q8.05 7.85 8.05 9.35L8.05 9.35L8.05 12.10L7.08 12.10ZM19.21 4.22L19.21 4.22L19.21 4.22Q20.94 4.22 22.08 5.47L22.08 5.47L22.08 5.47Q23.13 6.61 23.13 8.18L23.13 8.18L23.13 8.18Q23.15 12.07 23.13 12.13L23.13 12.13L23.13 12.13Q22.48 12.13 22.11 12.13L22.11 12.13L22.11 12.13Q22.11 12.08 22.11 10.42L22.11 10.42L22.11 10.42Q21.31 11.92 19.21 12.09L19.21 12.09L19.21 12.09Q17.49 12.09 16.40 10.92L16.40 10.92L16.40 10.92Q15.31 9.75 15.31 8.18L15.31 8.18L15.31 8.18Q15.31 6.62 16.34 5.48L16.34 5.48L16.34 5.48Q17.48 4.22 19.21 4.22ZM19.21 5.16L19.21 5.16L19.21 5.16Q18.01 5.16 17.15 6.05L17.15 6.05L17.15 6.05Q16.29 6.94 16.29 8.20L16.29 8.20L16.29 8.20Q16.29 9.01 16.73 9.76L16.73 9.76L16.73 9.76Q17.17 10.51 18.22 11.03L18.22 11.03L18.22 11.03Q20.86 11.62 21.98 8.63L21.98 8.63L21.98 8.63Q22.04 7.68 21.77 6.80L21.77 6.80L21.77 6.80Q21.58 6.41 21.25 6.05L21.25 6.05L21.25 6.05Q20.41 5.16 19.21 5.16ZM24.99 12.09L24.99 1.69L25.96 1.69L25.96 7.61L29.43 4.59L30.85 4.59L27.71 7.44L31.09 12.09L29.72 12.09L26.77 8.05L25.96 8.72L25.96 12.09L24.99 12.09ZM31.95 8.02L31.95 4.41L32.92 4.41L32.92 7.91L32.92 7.91Q32.92 9.19 33.06 9.67L33.06 9.67L33.06 9.67Q33.26 10.36 33.84 10.76L33.84 10.76L33.84 10.76Q34.43 11.16 35.24 11.16L35.24 11.16L35.24 11.16Q36.05 11.16 36.61 10.77L36.61 10.77L36.61 10.77Q37.17 10.38 37.38 9.75L37.38 9.75L37.38 9.75Q37.53 9.32 37.53 7.91L37.53 7.91L37.53 4.41L38.51 4.41L38.51 8.09L38.51 8.09Q38.51 9.65 38.15 10.43L38.15 10.43L38.15 10.43Q37.78 11.21 37.06 11.65L37.06 11.65L37.06 11.65Q36.33 12.09 35.24 12.09L35.24 12.09L35.24 12.09Q34.14 12.09 33.41 11.65L33.41 11.65L33.41 11.65Q32.68 11.21 32.31 10.41L32.31 10.41L32.31 10.41Q31.95 9.62 31.95 8.02L31.95 8.02ZM40.28 12.07L40.28 8.65L40.28 7.75L40.28 7.75Q40.39 7.08 40.59 6.65L40.59 6.65L40.59 6.65Q41.07 5.48 41.88 4.93L41.88 4.93L41.88 4.93Q42.68 4.38 43.22 4.38L43.22 4.38L43.22 4.38Q43.61 4.38 44.06 4.64L44.06 4.64L43.57 5.45L43.57 5.45Q42.93 5.22 42.30 5.82L42.30 5.82L42.30 5.82Q41.68 6.43 41.44 7.15L41.44 7.15L41.44 7.15Q41.26 7.79 41.26 9.54L41.26 9.54L41.26 12.07L40.28 12.07ZM57.99 3.88L57.99 3.88L57.18 4.48L57.18 4.48Q56.53 3.62 55.60 3.18L55.60 3.18L55.60 3.18Q54.67 2.73 53.57 2.73L53.57 2.73L53.57 2.73Q52.35 2.73 51.32 3.32L51.32 3.32L51.32 3.32Q50.29 3.90 49.71 4.88L49.71 4.88L49.71 4.88Q49.14 5.86 49.14 7.09L49.14 7.09L49.14 7.09Q49.14 8.94 50.42 10.07L50.42 10.07L50.42 10.07Q51.69 11.20 53.62 11.20L53.62 11.20L53.62 11.20Q55.75 11.20 57.18 9.54L57.18 9.54L57.99 10.14L57.99 10.14Q57.23 11.11 56.10 11.63L56.10 11.63L56.10 11.63Q54.96 12.16 53.57 12.16L53.57 12.16L53.57 12.16Q50.90 12.16 49.36 10.39L49.36 10.39L49.36 10.39Q48.08 8.89 48.08 7L48.08 7L48.08 7Q48.08 4.78 49.64 3.25L49.64 3.25L49.64 3.25Q51.20 1.73 53.55 1.73L53.55 1.73L53.55 1.73Q54.97 1.73 56.11 2.29L56.11 2.29L56.11 2.29Q57.26 2.86 57.99 3.88ZM63.40 4.22L63.40 4.22L63.40 4.22Q65.13 4.22 66.27 5.47L66.27 5.47L66.27 5.47Q67.30 6.62 67.30 8.18L67.30 8.18L67.30 8.18Q67.30 9.75 66.21 10.92L66.21 10.92L66.21 10.92Q65.11 12.09 63.40 12.09L63.40 12.09L63.40 12.09Q61.67 12.09 60.58 10.92L60.58 10.92L60.58 10.92Q59.49 9.75 59.49 8.18L59.49 8.18L59.49 8.18Q59.49 6.62 60.53 5.48L60.53 5.48L60.53 5.48Q61.67 4.22 63.40 4.22ZM63.40 5.16L63.40 5.16L63.40 5.16Q62.20 5.16 61.34 6.05L61.34 6.05L61.34 6.05Q60.48 6.94 60.48 8.20L60.48 8.20L60.48 8.20Q60.48 9.01 60.87 9.72L60.87 9.72L60.87 9.72Q61.26 10.42 61.93 10.80L61.93 10.80L61.93 10.80Q62.60 11.18 63.40 11.18L63.40 11.18L63.40 11.18Q64.20 11.18 64.87 10.80L64.87 10.80L64.87 10.80Q65.54 10.42 65.93 9.72L65.93 9.72L65.93 9.72Q66.32 9.01 66.32 8.20L66.32 8.20L66.32 8.20Q66.32 6.94 65.45 6.05L65.45 6.05L65.45 6.05Q64.59 5.16 63.40 5.16ZM68.93 12.09L68.93 1.69L69.90 1.69L69.90 12.09L68.93 12.09ZM75.43 4.22L75.43 4.22L75.43 4.22Q77.16 4.22 78.31 5.47L78.31 5.47L78.31 5.47Q79.34 6.62 79.34 8.18L79.34 8.18L79.34 8.18Q79.34 9.75 78.24 10.92L78.24 10.92L78.24 10.92Q77.15 12.09 75.43 12.09L75.43 12.09L75.43 12.09Q73.71 12.09 72.62 10.92L72.62 10.92L72.62 10.92Q71.53 9.75 71.53 8.18L71.53 8.18L71.53 8.18Q71.53 6.62 72.56 5.48L72.56 5.48L72.56 5.48Q73.71 4.22 75.43 4.22ZM75.43 5.16L75.43 5.16L75.43 5.16Q74.24 5.16 73.38 6.05L73.38 6.05L73.38 6.05Q72.52 6.94 72.52 8.20L72.52 8.20L72.52 8.20Q72.52 9.01 72.91 9.72L72.91 9.72L72.91 9.72Q73.30 10.42 73.97 10.80L73.97 10.80L73.97 10.80Q74.64 11.18 75.43 11.18L75.43 11.18L75.43 11.18Q76.24 11.18 76.91 10.80L76.91 10.80L76.91 10.80Q77.57 10.42 77.96 9.72L77.96 9.72L77.96 9.72Q78.35 9.01 78.35 8.20L78.35 8.20L78.35 8.20Q78.35 6.94 77.49 6.05L77.49 6.05L77.49 6.05Q76.63 5.16 75.43 5.16ZM80.75 12.07L80.75 8.65L80.75 7.75L80.75 7.75Q80.86 7.08 81.06 6.65L81.06 6.65L81.06 6.65Q81.54 5.48 82.35 4.93L82.35 4.93L82.35 4.93Q83.15 4.38 83.69 4.38L83.69 4.38L83.69 4.38Q84.08 4.38 84.53 4.64L84.53 4.64L84.03 5.45L84.03 5.45Q83.40 5.22 82.77 5.82L82.77 5.82L82.77 5.82Q82.15 6.43 81.91 7.15L81.91 7.15L81.91 7.15Q81.73 7.79 81.73 9.54L81.73 9.54L81.73 12.07L80.75 12.07ZM89.12 5.23L89.12 5.23L88.50 5.87L88.50 5.87Q87.73 5.12 86.99 5.12L86.99 5.12L86.99 5.12Q86.52 5.12 86.19 5.43L86.19 5.43L86.19 5.43Q85.85 5.74 85.85 6.16L85.85 6.16L85.85 6.16Q85.85 6.51 86.13 6.84L86.13 6.84L86.13 6.84Q86.41 7.19 87.29 7.64L87.29 7.64L87.29 7.64Q88.37 8.20 88.75 8.72L88.75 8.72L88.75 8.72Q89.13 9.24 89.13 9.90L89.13 9.90L89.13 9.90Q89.13 10.81 88.48 11.45L88.48 11.45L88.48 11.45Q87.83 12.09 86.86 12.09L86.86 12.09L86.86 12.09Q86.21 12.09 85.62 11.82L85.62 11.82L85.62 11.82Q85.03 11.54 84.65 11.04L84.65 11.04L85.26 10.35L85.26 10.35Q86.00 11.18 86.82 11.18L86.82 11.18L86.82 11.18Q87.40 11.18 87.80 10.81L87.80 10.81L87.80 10.81Q88.21 10.44 88.21 9.94L88.21 9.94L88.21 9.94Q88.21 9.52 87.94 9.20L87.94 9.20L87.94 9.20Q87.68 8.88 86.73 8.39L86.73 8.39L86.73 8.39Q85.72 7.88 85.35 7.36L85.35 7.36L85.35 7.36Q84.98 6.86 84.98 6.20L84.98 6.20L84.98 6.20Q84.98 5.35 85.57 4.78L85.57 4.78L85.57 4.78Q86.15 4.22 87.04 4.22L87.04 4.22L87.04 4.22Q88.07 4.22 89.12 5.23Z"></path></g><linearGradient data-v-d3f97b9e="" gradientTransform="rotate(25)" id="a654ee4c-87d8-4f35-be3c-2bab8df6a2bb" x1="0%" y1="0%" x2="100%" y2="0%"><stop data-v-d3f97b9e="" offset="0%" style="stop-color: rgb(60, 17, 67); stop-opacity: 1;"></stop><stop data-v-d3f97b9e="" offset="100%" style="stop-color: rgb(194, 81, 120); stop-opacity: 1;"></stop></linearGradient><g data-v-d3f97b9e="" id="cb676ae7-be2b-4690-bd73-8f39f5528a6f" transform="matrix(1.596962158978993,0,0,1.596962158978993,-24.675727249768926,-34.10391534065779)" stroke="none" fill="url(#a654ee4c-87d8-4f35-be3c-2bab8df6a2bb)"><path d="M84.77 33.711c-3.65-7.363-12.29-11.76-23.116-11.76-7.04 0-14.485 1.807-21.534 5.221-18.523 8.978-28.601 26.58-22.466 39.238 3.609 7.451 12.275 11.898 23.18 11.898 7.041 0 14.489-1.806 21.539-5.222 8.417-4.079 15.436-10.098 19.759-16.948a2.23 2.23 0 0 0 .037-2.322c-.423-.721-1.222-1.157-2.046-1.098-3.527.182-6.332-.973-7.328-3.026-1.704-3.516 1.802-8.884 7.655-11.722.918-.443 1.91-.822 2.943-1.125a2.236 2.236 0 0 0 1.377-3.134zM31.759 45.404c2.33-2.025 5.354-2.359 6.756-.746 1.402 1.612.65 4.562-1.679 6.586-2.328 2.022-5.353 2.356-6.756.743-1.4-1.612-.647-4.56 1.679-6.583zm7.254 21.653c-2.804 1.284-5.801.75-6.69-1.191-.889-1.943.664-4.559 3.469-5.842 2.807-1.287 5.804-.752 6.693 1.189.887 1.942-.667 4.558-3.472 5.844zm1.947-30.412c-.709-2.015 1.075-4.479 3.984-5.504 2.911-1.025 5.847-.223 6.555 1.793.711 2.017-1.073 4.48-3.985 5.506-2.909 1.023-5.844.22-6.554-1.795zm15.769 31.56c-2.9 1.051-5.844.272-6.57-1.736-.728-2.01 1.037-4.488 3.939-5.539 2.898-1.049 5.841-.272 6.569 1.738.726 2.008-1.039 4.488-3.938 5.537zm7.733-32.492c-3.013.662-5.828-.492-6.288-2.58-.459-2.086 1.613-4.314 4.626-4.977 3.014-.664 5.829.491 6.288 2.576.459 2.088-1.613 4.317-4.626 4.981z"></path></g><!----></svg>